<?xml version="1.0" encoding="UTF-8" standalone="no"?>
<svg
   xmlns:dc="http://purl.org/dc/elements/1.1/"
   xmlns:cc="http://creativecommons.org/ns#"
   xmlns:rdf="http://www.w3.org/1999/02/22-rdf-syntax-ns#"
   xmlns:svg="http://www.w3.org/2000/svg"
   xmlns="http://www.w3.org/2000/svg"
   xmlns:sodipodi="http://sodipodi.sourceforge.net/DTD/sodipodi-0.dtd"
   xmlns:inkscape="http://www.inkscape.org/namespaces/inkscape"
   width="513"
   height="70"
   viewBox="0 0 135.73125 18.520834"
   version="1.1"
   id="svg1041"
   inkscape:version="1.0.2-2 (e86c870879, 2021-01-15)"
   sodipodi:docname="logo1.svg"
   inkscape:export-filename="C:\Users\Josetv\Desktop\carzone-pro\carzone\static\img\logos\logo-black-white1.png"
   inkscape:export-xdpi="96"
   inkscape:export-ydpi="96">
  <defs
     id="defs1035" />
  <sodipodi:namedview
     id="base"
     pagecolor="#ffffff"
     bordercolor="#666666"
     borderopacity="1.0"
     inkscape:pageopacity="0.0"
     inkscape:pageshadow="2"
     inkscape:zoom="1.9275568"
     inkscape:cx="270.28567"
     inkscape:cy="-7.679887"
     inkscape:document-units="mm"
     inkscape:current-layer="layer1"
     inkscape:document-rotation="0"
     showgrid="false"
     units="px"
     inkscape:window-width="1920"
     inkscape:window-height="1017"
     inkscape:window-x="-8"
     inkscape:window-y="-8"
     inkscape:window-maximized="1" />
  <metadata
     id="metadata1038">
    <rdf:RDF>
      <cc:Work
         rdf:about="">
        <dc:format>image/svg+xml</dc:format>
        <dc:type
           rdf:resource="http://purl.org/dc/dcmitype/StillImage" />
        <dc:title></dc:title>
      </cc:Work>
    </rdf:RDF>
  </metadata>
  <g
     inkscape:label="Layer 1"
     inkscape:groupmode="layer"
     id="layer1">
    <text
       xml:space="preserve"
       style="font-style:normal;font-variant:normal;font-weight:normal;font-stretch:normal;font-size:5.64444px;line-height:1.25;font-family:'Rage Italic';-inkscape-font-specification:'Rage Italic, Normal';font-variant-ligatures:normal;font-variant-caps:normal;font-variant-numeric:normal;font-variant-east-asian:normal;fill:#000000;stroke:none;stroke-width:0.264583;"
       x="79.120461"
       y="13.962"
       id="text848"
       inkscape:export-xdpi="96"
       inkscape:export-ydpi="96"><tspan
         sodipodi:role="line"
         id="tspan846"
         x="79.120461"
         y="13.962"
         style="font-style:normal;font-variant:normal;font-weight:normal;font-stretch:normal;font-size:14.1111px;font-family:'Script MT Bold';-inkscape-font-specification:'Script MT Bold, Normal';font-variant-ligatures:normal;font-variant-caps:normal;font-variant-numeric:normal;font-variant-east-asian:normal;fill:#000000;stroke:none;stroke-width:0.264583;">Car Sale</tspan></text>
    <path
       style="fill:#000000;stroke:#ffffff;stroke-width:0.0412281;stroke-linecap:butt;stroke-linejoin:miter;stroke-miterlimit:4;stroke-dasharray:none;stroke-opacity:1"
       d="M 10.0002,8.75364 C 14.030339,7.8142 18.99932,6.908 23.169776,5.97671 c 7.54275,-1.9050009 16.41947,-3.4887989 24.964038,-1.59378 1.709233,0.34253 3.409827,0.61981 5.224554,1.18822 1.946626,0.61178 3.474672,1.16901 4.824096,1.78078 -0.381603,0.0782 -0.826339,0.0808 -1.135957,0.24528 C 46.269147,5.2286859 36.181731,2.7786892 28.635005,7.00326 c 3.087016,0.01 6.597386,0.33246 9.966,0.7111 2.355223,0.26473 4.751967,0.43093 7.193975,0.74535 l 4.936613,0.4114 C 52.830119,9.02142 54.109592,8.51073 55.665072,8.22278 57.051554,7.98103 59.160829,7.43594 59.7511,7.43889 l 0.658513,0.0626 c 1.260833,0.0768 2.406836,0.15542 5.984662,1.17718 2.504197,0.8078373 4.636496,1.745285 6.415643,2.9112 0.331178,0.24564 0.669199,0.47533 0.953778,0.82961 l -0.260824,0.2091 -0.599191,0.66266 -0.427925,0.40169 0.62725,-1.36312 C 70.873325,11.285415 68.384287,9.8999244 65.766223,9.37666 L 65.382932,9.29446 C 64.058284,8.87808 61.93365,8.65742 61.165063,8.71743 57.19238,8.6152006 52.876189,10.267465 49.856441,10.080811 47.410905,10.153571 41.722668,9.5037058 34.992054,8.90379 l -3.434951,1.17501 1.755296,1.61064 10.851268,1.65327 -11.785211,-0.58564 -2.428589,-3.16874 2.91279,-0.88692 C 29.112542,8.28144 26.675028,8.3659 23.725336,8.25354 c -2.786456,0.0593 -5.249322,0.27135 -7.21317,0.71882 2.493146,-0.33033 5.546167,0.15384 7.693446,0.46922 1.55605,0.22853 3.089592,0.50456 3.690089,0.75152 -1.71577,-0.13915 -4.552039,-0.12155 -7.005029,-0.15757 -3.073779,-0.0439 -6.49535,0.26915 -7.193059,0.38547 l -0.01053,2.30245 -1.503547,-3.09684 2.012702,-0.0287 z"
       id="path865-2-0"
       sodipodi:nodetypes="cccccccscccccccccccccccccccccccccsccccccc" />
    <path
       style="fill:#000000;stroke:#000000;stroke-width:0.0412281;stroke-linecap:butt;stroke-linejoin:miter;stroke-miterlimit:4;stroke-dasharray:none;stroke-opacity:1"
       d="m 16.847741,14.44577 c 0.05794,-0.3919 1.391432,-3.37281 4.594074,-3.42966 3.45571,-0.13845 4.864843,2.92713 4.85532,3.10397 h -0.428136 c -2.149887,-3.30213 -6.638036,-3.20951 -8.571804,0.32569 z"
       id="path867-06-2"
       sodipodi:nodetypes="cccccc" />
    <path
       style="fill:#ff0000;stroke:#ff0000;stroke-width:0.0628761;stroke-linecap:butt;stroke-linejoin:miter;stroke-miterlimit:4;stroke-dasharray:none;stroke-opacity:1"
       d="m 26.821639,13.97449 -1.338779,-2.45095 1.843714,1.81161 3.506142,0.53292 z"
       id="path869-7-8"
       sodipodi:nodetypes="ccccc" />
    <path
       style="fill:#ff0000;stroke:#ff0000;stroke-width:0.0412281;stroke-linecap:butt;stroke-linejoin:miter;stroke-miterlimit:4;stroke-dasharray:none;stroke-opacity:1"
       d="M 36.991812,7.16156 30.224218,6.78226 C 34.048213,4.22503 42.701709,4.8794712 49.812505,6.4097207 44.283943,6.1470837 37.514354,4.9803141 32.814633,6.2421441 35.365237,6.5082341 36.428819,7.03633 36.991812,7.16156 Z"
       id="path871-1-1"
       sodipodi:nodetypes="ccccc" />
    <path
       style="fill:#ff0000;stroke:#ff0000;stroke-width:0.0588196;stroke-linecap:butt;stroke-linejoin:miter;stroke-miterlimit:4;stroke-dasharray:none;stroke-opacity:1"
       d="m 69.421563,14.79566 1.332643,-2.07519 1.699358,0.2234 0.179941,-0.37397 -2.076994,-0.37496 z"
       id="path873-4-0"
       sodipodi:nodetypes="cccccc" />
    <path
       style="fill:#000000;stroke:#000000;stroke-width:0.0412281;stroke-linecap:butt;stroke-linejoin:miter;stroke-miterlimit:4;stroke-dasharray:none;stroke-opacity:1"
       d="m 55.350003,13.59632 c 0.02205,-0.39191 1.35878,-3.45778 4.606206,-3.51463 3.459921,-0.13845 4.90386,2.92713 4.855322,3.10397 h -0.428138 c -0.970185,-1.49013 -2.478639,-2.33372 -4.013272,-2.39043 -1.855512,-0.0686 -3.720088,0.97675 -4.57673,2.80109 z"
       id="path867-0-3-9"
       sodipodi:nodetypes="ccccscc" />
  </g>
</svg>
